<svg width="29" height="29" viewBox="0 0 29 29" fill="none" xmlns="http://www.w3.org/2000/svg">
<path d="M11.177 26.5833L10.6937 22.7167C10.4319 22.616 10.1852 22.4951 9.9536 22.3542C9.722 22.2132 9.49544 22.0621 9.27391 21.901L5.67912 23.4114L2.3562 17.6719L5.46766 15.3156C5.44752 15.1746 5.43745 15.0387 5.43745 14.9078V14.0922C5.43745 13.9613 5.44752 13.8253 5.46766 13.6844L2.3562 11.3281L5.67912 5.58853L9.27391 7.09895C9.49544 6.93784 9.72704 6.7868 9.9687 6.64582C10.2104 6.50485 10.452 6.38402 10.6937 6.28332L11.177 2.41666H17.8229L18.3062 6.28332C18.568 6.38402 18.8147 6.50485 19.0463 6.64582C19.2779 6.7868 19.5045 6.93784 19.726 7.09895L23.3208 5.58853L26.6437 11.3281L23.5322 13.6844C23.5524 13.8253 23.5625 13.9613 23.5625 14.0922V14.9078C23.5625 15.0387 23.5423 15.1746 23.502 15.3156L26.6135 17.6719L23.2906 23.4114L19.726 21.901C19.5045 22.0621 19.2729 22.2132 19.0312 22.3542C18.7895 22.4951 18.5479 22.616 18.3062 22.7167L17.8229 26.5833H11.177ZM14.5604 18.7292C15.7284 18.7292 16.7253 18.3163 17.551 17.4906C18.3767 16.6649 18.7895 15.668 18.7895 14.5C18.7895 13.3319 18.3767 12.3351 17.551 11.5094C16.7253 10.6837 15.7284 10.2708 14.5604 10.2708C13.3722 10.2708 12.3703 10.6837 11.5546 11.5094C10.739 12.3351 10.3312 13.3319 10.3312 14.5C10.3312 15.668 10.739 16.6649 11.5546 17.4906C12.3703 18.3163 13.3722 18.7292 14.5604 18.7292Z" fill="#1D1B20"/>
</svg>
