<svg width="19" height="19" viewBox="0 0 19 19" fill="none" xmlns="http://www.w3.org/2000/svg">
<path d="M5.06934 8.11097H3.04159L3.04159 0L5.06934 0L5.06934 8.11097Z" fill="#1E1E1E"/>
<path d="M5.06934 18.7566H3.04159L3.04159 14.1942H5.06934V18.7566Z" fill="#1E1E1E"/>
<path d="M15.7151 18.7566H13.6873V9.63177H15.7151V18.7566Z" fill="#1E1E1E"/>
<path d="M15.7151 4.56242H13.6873V0L15.7151 0V4.56242Z" fill="#1E1E1E"/>
<path d="M6.48878 11.6595C6.48878 10.3157 5.39936 9.22623 4.05549 9.22623C2.71162 9.22623 1.62219 10.3157 1.62219 11.6595C1.62219 13.0034 2.71162 14.0928 4.05549 14.0928V15.715C1.8157 15.715 0 13.8993 0 11.6595C0 9.41974 1.8157 7.60403 4.05549 7.60403C6.29527 7.60403 8.11097 9.41974 8.11097 11.6595C8.11097 13.8993 6.29527 15.715 4.05549 15.715V14.0928C5.39936 14.0928 6.48878 13.0034 6.48878 11.6595Z" fill="#1E1E1E"/>
<path d="M17.1344 7.09708C17.1344 5.75321 16.045 4.66379 14.7011 4.66379C13.3572 4.66379 12.2678 5.75321 12.2678 7.09708C12.2678 8.44095 13.3572 9.53037 14.7011 9.53037V11.1526C12.4613 11.1526 10.6456 9.33686 10.6456 7.09708C10.6456 4.8573 12.4613 3.0416 14.7011 3.0416C16.9409 3.0416 18.7566 4.8573 18.7566 7.09708C18.7566 9.33686 16.9409 11.1526 14.7011 11.1526V9.53037C16.045 9.53037 17.1344 8.44095 17.1344 7.09708Z" fill="#1E1E1E"/>
</svg>
