<svg width="21" height="21" viewBox="0 0 21 21" fill="none" xmlns="http://www.w3.org/2000/svg">
<path d="M3.40283 17.8646V13.6111C3.40283 13.1432 3.56943 12.7427 3.90261 12.4095C4.2358 12.0763 4.63634 11.9097 5.10422 11.9097H15.3126C15.7804 11.9097 16.181 12.0763 16.5142 12.4095C16.8473 12.7427 17.0139 13.1432 17.0139 13.6111V17.8646H3.40283ZM7.6563 11.059C6.47951 11.059 5.4764 10.6443 4.64697 9.81487C3.81755 8.98544 3.40283 7.98233 3.40283 6.80554C3.40283 5.62874 3.81755 4.62563 4.64697 3.7962C5.4764 2.96678 6.47951 2.55206 7.6563 2.55206H12.7605C13.9373 2.55206 14.9404 2.96678 15.7698 3.7962C16.5992 4.62563 17.0139 5.62874 17.0139 6.80554C17.0139 7.98233 16.5992 8.98544 15.7698 9.81487C14.9404 10.6443 13.9373 11.059 12.7605 11.059H7.6563ZM5.10422 16.1632H15.3126V13.6111H5.10422V16.1632ZM7.6563 9.35762H12.7605C13.4694 9.35762 14.072 9.1095 14.5682 8.61326C15.0644 8.11702 15.3126 7.51445 15.3126 6.80554C15.3126 6.09662 15.0644 5.49405 14.5682 4.99781C14.072 4.50157 13.4694 4.25345 12.7605 4.25345H7.6563C6.94739 4.25345 6.34482 4.50157 5.84858 4.99781C5.35234 5.49405 5.10422 6.09662 5.10422 6.80554C5.10422 7.51445 5.35234 8.11702 5.84858 8.61326C6.34482 9.1095 6.94739 9.35762 7.6563 9.35762ZM7.6563 7.65623C7.89733 7.65623 8.09937 7.5747 8.26242 7.41166C8.42547 7.24861 8.507 7.04657 8.507 6.80554C8.507 6.5645 8.42547 6.36246 8.26242 6.19942C8.09937 6.03637 7.89733 5.95484 7.6563 5.95484C7.41527 5.95484 7.21323 6.03637 7.05018 6.19942C6.88713 6.36246 6.80561 6.5645 6.80561 6.80554C6.80561 7.04657 6.88713 7.24861 7.05018 7.41166C7.21323 7.5747 7.41527 7.65623 7.6563 7.65623ZM12.7605 7.65623C13.0015 7.65623 13.2035 7.5747 13.3666 7.41166C13.5296 7.24861 13.6112 7.04657 13.6112 6.80554C13.6112 6.5645 13.5296 6.36246 13.3666 6.19942C13.2035 6.03637 13.0015 5.95484 12.7605 5.95484C12.5194 5.95484 12.3174 6.03637 12.1544 6.19942C11.9913 6.36246 11.9098 6.5645 11.9098 6.80554C11.9098 7.04657 11.9913 7.24861 12.1544 7.41166C12.3174 7.5747 12.5194 7.65623 12.7605 7.65623Z" fill="white"/>
</svg>
