<svg width="17" height="16" viewBox="0 0 17 16" fill="none" xmlns="http://www.w3.org/2000/svg">
<path d="M2.7 13.3333H7.65V9.77778H2.7V13.3333ZM2.7 8.88889H7.65V2.66667H2.7V8.88889ZM8.55 13.3333H13.5V7.11111H8.55V13.3333ZM8.55 6.22222H13.5V2.66667H8.55V6.22222ZM1.8 16C1.305 16 0.88125 15.8259 0.52875 15.4778C0.17625 15.1296 0 14.7111 0 14.2222V1.77778C0 1.28889 0.17625 0.87037 0.52875 0.522222C0.88125 0.174074 1.305 0 1.8 0H14.4C14.895 0 15.3188 0.174074 15.6713 0.522222C16.0238 0.87037 16.2 1.28889 16.2 1.77778V3.55556V5.33333V7.11111V8.88889V10.6667V12.4444V14.2222C16.2 14.7111 16.0238 15.1296 15.6713 15.4778C15.3188 15.8259 14.895 16 14.4 16H1.8ZM1.8 14.2222H14.4V1.77778H1.8V14.2222Z" fill="white"/>
</svg>
