<svg width="19" height="18" viewBox="0 0 19 18" fill="none" xmlns="http://www.w3.org/2000/svg">
<path d="M2.7 15.3333H7.65V11.7778H2.7V15.3333ZM2.7 10.8889H7.65V4.66667H2.7V10.8889ZM8.55 15.3333H13.5V9.11111H8.55V15.3333ZM8.55 8.22222H13.5V4.66667H8.55V8.22222ZM1.8 18C1.305 18 0.88125 17.8259 0.52875 17.4778C0.17625 17.1296 0 16.7111 0 16.2222V3.77778C0 3.28889 0.17625 2.87037 0.52875 2.52222C0.88125 2.17407 1.305 2 1.8 2H11C11 2.5 11.0001 2.0386 11 3C11 3.60868 11 3.28889 11 3.77778H14.4V7.63482H16.2V9.11111V10.8889V12.6667V14.3956V14.4444V16.2222C16.2 16.7111 16.0238 17.1296 15.6713 17.4778C15.3188 17.8259 14.895 18 14.4 18H1.8ZM1.8 16.2222H14.4V3.77778H1.8V16.2222Z" fill="white"/>
<path d="M14.35 3L15.35 3H16.35" stroke="white" stroke-width="2"/>
<path d="M14.35 5H15.35L16.35 5" stroke="white" stroke-width="2"/>
<path d="M14.35 1L15.35 1L16.35 1" stroke="white" stroke-width="2"/>
<path d="M16.35 3L17.35 3H18.35" stroke="white" stroke-width="2"/>
<path d="M12.35 3L13.35 3H14.35" stroke="white" stroke-width="2"/>
</svg>
